<svg xmlns="http://www.w3.org/2000/svg" xmlns:xlink="http://www.w3.org/1999/xlink" xmlns:lucid="lucid" width="952" height="450"><g transform="translate(71 -50)" lucid:page-tab-id="0_0"><path d="M68.92 119.67h188.6V173H68.9z" stroke="#3a414a" stroke-width="4" fill="#fff"/><use xlink:href="#a" transform="matrix(1,0,0,1,80.92475335594759,131.6645469815232) translate(27.22222222222223 19.65277777777778)"/><use xlink:href="#b" transform="matrix(1,0,0,1,80.92475335594759,131.6645469815232) translate(79.01234567901236 19.65277777777778)"/><path d="M257.5 119.67h37.73V173H257.5z" stroke="#3a414a" stroke-width="4" fill="#fff"/><path d="M40.55 146.35h4.68M40.65 146.35h-4.1" stroke="#3a414a" stroke-width="8" fill="none"/><path d="M59.07 146.35L46.17 154l-.02-15.28z" stroke="#3a414a" stroke-width="8" fill="#3a414a"/><path d="M-74.28 133.12a6 6 0 0 1 6-6H7.24a6 6 0 0 1 6 6v18a6 6 0 0 1-6 6h-75.52a6 6 0 0 1-6-6z" stroke="#000" stroke-opacity="0" fill="#fff" fill-opacity="0"/><use xlink:href="#c" transform="matrix(1,0,0,1,-69.28361501016215,132.12388830804133) translate(14.987654320987655 17.77777777777778)"/><use xlink:href="#d" transform="matrix(1,0,0,1,-69.28361501016215,132.12388830804133) translate(15.574074074074076 44.44444444444444)"/><use xlink:href="#e" transform="matrix(1,0,0,1,-69.28361501016215,132.12388830804133) translate(39 71.11111111111111)"/><path d="M68.92 223.33h188.6v53.34H68.9z" stroke="#3a414a" stroke-width="4" fill="#fff"/><use xlink:href="#f" transform="matrix(1,0,0,1,80.92475335594756,235.3333333334219) translate(27.22222222222223 19.65277777777778)"/><use xlink:href="#g" transform="matrix(1,0,0,1,80.92475335594756,235.3333333334219) translate(79.01234567901236 19.65277777777778)"/><path d="M257.5 223.33h37.73v53.34H257.5zM395.36 119.67h54.77V173h-54.77z" stroke="#3a414a" stroke-width="4" fill="#fff"/><path d="M298.23 146.33h-1" stroke="#3a414a" stroke-width="8" fill="none"/><path d="M301.33 150.3h-4.1v-7.94h4.1z" stroke="#3a414a" stroke-width=".05" fill="#3a414a"/><path d="M294.12 146.33h4.1M301.23 146.3h70.42" stroke="#3a414a" stroke-width="8" fill="none"/><path d="M301.33 150.3h-4.1v-7.96h4.1z" stroke="#3a414a" stroke-width=".05" fill="#3a414a"/><path d="M385.5 146.3l-12.9 7.65v-15.27z" stroke="#3a414a" stroke-width="8" fill="#3a414a"/><path d="M574.36 119.67h54.77V173h-54.77zM484.86 119.67h54.77V173h-54.77zM395.36 223.33h54.77v53.34h-54.77zM574.36 223.33h54.77v53.34h-54.77zM484.86 223.33h54.77v53.34h-54.77zM395.36 327.4h54.77v53.34h-54.77zM574.36 327.4h54.77v53.32h-54.77zM484.86 327.4h54.77v53.32h-54.77z" stroke="#3a414a" stroke-width="4" fill="#fff"/><path d="M317.62 250h54.04M317.72 250h-4.1" stroke="#3a414a" stroke-width="8" fill="none"/><path d="M385.5 250l-12.9 7.64v-15.28z" stroke="#3a414a" stroke-width="8" fill="#3a414a"/><path d="M301.23 250h11.86" stroke="#3a414a" stroke-width="8" fill="none"/><path d="M301.33 253.97h-4.1v-7.94h4.1z" stroke="#3a414a" stroke-width=".05" fill="#3a414a"/><path d="M312.98 250h4.1" stroke="#3a414a" stroke-width="8" fill="none"/><path d="M68.92 327h193.35v53.33H68.93z" stroke="#3a414a" stroke-width="4" fill="#fff"/><use xlink:href="#f" transform="matrix(1,0,0,1,80.92475335594759,339.00211968549775) translate(29.72222222222223 19.65277777777778)"/><use xlink:href="#g" transform="matrix(1,0,0,1,80.92475335594759,339.00211968549775) translate(81.51234567901236 19.65277777777778)"/><path d="M257.5 327h37.73v53.33H257.5z" stroke="#3a414a" stroke-width="4" fill="#fff"/><path d="M300.23 354.08h75.66" stroke="#3a414a" stroke-width="6" fill="none"/><path d="M300.3 357.06h-3.07v-5.95h3.07z" stroke="#3a414a" stroke-width=".05" fill="#3a414a"/><path d="M387.46 354.07l-12.9 7.64v-15.26z" stroke="#3a414a" stroke-width="6" fill="#3a414a"/><path d="M633.63 146.33h32.65v38.83h63.8" stroke="#3a414a" stroke-width="5" fill="none"/><path d="M633.7 148.8h-2.57v-4.94h2.57z" stroke="#3a414a" stroke-width=".05" fill="#3a414a"/><path d="M740.5 185.16l-12.9 7.64v-15.27z" stroke="#3a414a" stroke-width="5" fill="#3a414a"/><path d="M633.63 250h66.68v93.75h29.78" stroke="#3a414a" stroke-width="5" fill="none"/><path d="M633.7 252.47h-2.57v-4.94h2.57z" stroke="#3a414a" stroke-width=".05" fill="#3a414a"/><path d="M740.5 343.75l-12.9 7.63V336.1z" stroke="#3a414a" stroke-width="5" fill="#3a414a"/><path d="M41.3 249.86h4.43M41.4 249.86h-4.1" stroke="#3a414a" stroke-width="8" fill="none"/><path d="M59.55 249.88l-12.92 7.62.02-15.27z" stroke="#3a414a" stroke-width="8" fill="#3a414a"/><path d="M41.3 352.2h4.43M41.4 352.2h-4.1" stroke="#3a414a" stroke-width="8" fill="none"/><path d="M59.55 352.2l-12.92 7.63.02-15.27z" stroke="#3a414a" stroke-width="8" fill="#3a414a"/><path d="M17.24 146.35h41.73" stroke="#3a414a" stroke-width="8" fill="none"/><path d="M17.34 150.33h-4.1v-7.95h4.1z" stroke="#3a414a" stroke-width=".05" fill="#3a414a"/><path d="M62.97 145.93v.42" stroke="#3a414a" stroke-width="8" fill="none"/><path d="M754.42 290.48a6 6 0 0 1-6-6V144a6 6 0 0 1 6-6h68.36a6 6 0 0 1 6 6V284.5a6 6 0 0 1-6 6z" stroke="#3a414a" stroke-width="6" fill="#fff"/><use xlink:href="#h" transform="matrix(6.123233995736766e-17,-1,1,6.123233995736766e-17,760.4217346628626,278.477353684189) translate(5.981481481481474 32.02777777777778)"/><path d="M71.44 419.4H260v53.33H71.44z" stroke="#3a414a" stroke-width="4" fill="#fff"/><use xlink:href="#f" transform="matrix(1,0,0,1,83.43520142122193,431.39184966569366) translate(27.22222222222223 19.65277777777778)"/><use xlink:href="#g" transform="matrix(1,0,0,1,83.43520142122193,431.39184966569366) translate(79.01234567901236 19.65277777777778)"/><path d="M260.02 419.4h37.72v53.33h-37.72zM398.67 419.4h54.78v53.33h-54.78zM577.67 419.4h54.78v53.33h-54.78zM488.17 419.4h54.78v53.33h-54.78z" stroke="#3a414a" stroke-width="4" fill="#fff"/><path d="M303.74 446.06h12.66" stroke="#3a414a" stroke-width="8" fill="none"/><path d="M303.84 450.03h-4.1v-7.95h4.1z" stroke="#3a414a" stroke-width=".05" fill="#3a414a"/><path d="M316.3 446.06h4.1M319.74 446.06h55.23M315.74 446.06" stroke="#3a414a" stroke-width="8" fill="none"/><path d="M388.8 446.06l-12.9 7.63V438.4z" stroke="#3a414a" stroke-width="8" fill="#3a414a"/><path d="M636.95 446.06h93.13" stroke="#3a414a" stroke-width="5" fill="none"/><path d="M637 448.53h-2.55v-4.95H637z" stroke="#3a414a" stroke-width=".05" fill="#3a414a"/><path d="M740.5 446.06l-12.9 7.63V438.4z" stroke="#3a414a" stroke-width="5" fill="#3a414a"/><path d="M43.82 445.92h4.42M43.92 445.92h-4.1" stroke="#3a414a" stroke-width="8" fill="none"/><path d="M62.06 445.93l-12.92 7.63.02-15.27z" stroke="#3a414a" stroke-width="8" fill="#3a414a"/><path d="M754.42 472.73a6 6 0 0 1-6-6V326.26a6 6 0 0 1 6-6h68.36a6 6 0 0 1 6 6v140.47a6 6 0 0 1-6 6z" stroke="#3a414a" stroke-width="6" fill="#fff"/><use xlink:href="#h" transform="matrix(6.123233995736766e-17,-1,1,6.123233995736766e-17,760.4217346628625,460.7251829986727) translate(5.981481481481474 32.02777777777778)"/><path d="M633.63 354.74h54.65v41.75h41.8" stroke="#3a414a" stroke-width="5" fill="none"/><path d="M633.7 357.22h-2.57v-4.95h2.57z" stroke="#3a414a" stroke-width=".05" fill="#3a414a"/><path d="M740.5 396.5l-12.9 7.63v-15.27z" stroke="#3a414a" stroke-width="5" fill="#3a414a"/><path d="M633.63 352.58h54.65v-73.93h41.8" stroke="#3a414a" stroke-width="5" fill="none"/><path d="M633.7 355.06h-2.57v-4.95h2.57z" stroke="#3a414a" stroke-width=".05" fill="#3a414a"/><path d="M740.5 278.65l-12.9 7.64V271z" stroke="#3a414a" stroke-width="5" fill="#3a414a"/><path d="M633.63 250h66.68v-35.75h29.78" stroke="#3a414a" stroke-width="5" fill="none"/><path d="M633.7 252.47h-2.57v-4.94h2.57z" stroke="#3a414a" stroke-width=".05" fill="#3a414a"/><path d="M740.5 214.25l-12.9 7.63V206.6z" stroke="#3a414a" stroke-width="5" fill="#3a414a"/><path d="M834.78 214.25h17.43" stroke="#3a414a" stroke-width="6" fill="none"/><path d="M834.86 217.22h-3.08v-5.95h3.08z" stroke="#3a414a" stroke-width=".05" fill="#3a414a"/><path d="M863.77 214.25l-12.9 7.63V206.6z" stroke="#3a414a" stroke-width="6" fill="#3a414a"/><path d="M834.78 397.53h19.42" stroke="#3a414a" stroke-width="6" fill="none"/><path d="M834.86 400.5h-3.08v-5.94h3.08z" stroke="#3a414a" stroke-width=".05" fill="#3a414a"/><path d="M865.77 397.53l-12.9 7.64V389.9z" stroke="#3a414a" stroke-width="6" fill="#3a414a"/><g fill="none"><path d="M636.5 62.73a6 6 0 0 1 6 6v34.42a6 6 0 0 1-6 6H401.37a6 6 0 0 1-6-6V68.73a6 6 0 0 1 6-6z"/><path d="M395.36 109.15c0-5.53 4.47-10 10-10h103.57c5.53 0 10-4.48 10-10 0 5.52 4.48 10 10 10H632.5c5.54 0 10 4.47 10 10" stroke="#3a414a" stroke-width="6"/></g><use xlink:href="#i" transform="matrix(1,-2.4492935982947064e-16,2.4492935982947064e-16,1,400.3558742393766,65.93676622836726) translate(22.179012345679 17.77777777777778)"/><use xlink:href="#j" transform="matrix(1,-2.4492935982947064e-16,2.4492935982947064e-16,1,400.3558742393766,65.93676622836726) translate(64.1543209876543 17.77777777777778)"/><path d="M545.63 354.05h22.73" stroke="#3a414a" stroke-width="8" fill="none"/><path d="M545.74 358.03h-4.1v-7.95h4.1zM572.36 358.03h-4.1v-7.95h4.1z" stroke="#3a414a" stroke-width=".05" fill="#3a414a"/><path d="M545.63 250h22.73" stroke="#3a414a" stroke-width="8" fill="none"/><path d="M545.74 253.97h-4.1v-7.94h4.1zM572.36 253.97h-4.1v-7.94h4.1z" stroke="#3a414a" stroke-width=".05" fill="#3a414a"/><path d="M544.63 145.92h24.73" stroke="#3a414a" stroke-width="6" fill="none"/><path d="M544.7 148.9h-3.07v-5.95h3.08zM572.36 148.9h-3.08v-5.95h3.08z" stroke="#3a414a" stroke-width=".05" fill="#3a414a"/><path d="M455.13 146.33h24.73" stroke="#3a414a" stroke-width="6" fill="none"/><path d="M455.2 149.3h-3.07v-5.94h3.08zM482.86 149.3h-3.08v-5.94h3.08z" stroke="#3a414a" stroke-width=".05" fill="#3a414a"/><path d="M456.13 249.84h22.73" stroke="#3a414a" stroke-width="8" fill="none"/><path d="M456.24 253.8h-4.1v-7.94h4.1zM482.86 253.8h-4.1v-7.94h4.1z" stroke="#3a414a" stroke-width=".05" fill="#3a414a"/><path d="M456.13 354.07h22.73" stroke="#3a414a" stroke-width="8" fill="none"/><path d="M456.24 358.05h-4.1v-7.95h4.1zM482.86 358.05h-4.1v-7.95h4.1z" stroke="#3a414a" stroke-width=".05" fill="#3a414a"/><path d="M547.95 446.06h24.72" stroke="#3a414a" stroke-width="6" fill="none"/><path d="M548.02 449.03h-3.07v-5.95h3.07zM575.67 449.03h-3.08v-5.95h3.07z" stroke="#3a414a" stroke-width=".05" fill="#3a414a"/><path d="M458.45 448.06h24.72" stroke="#3a414a" stroke-width="6" fill="none"/><path d="M458.52 451.03h-3.07v-5.95h3.07zM486.17 451.03h-3.08v-5.95h3.07z" stroke="#3a414a" stroke-width=".05" fill="#3a414a"/><defs><path fill="#3a414a" d="M30-248c118-7 216 8 213 122C240-48 200 0 122 0H30v-248zM63-27c89 8 146-16 146-99s-60-101-146-95v194" id="k"/><path fill="#3a414a" d="M100-194c62-1 85 37 85 99 1 63-27 99-86 99S16-35 15-95c0-66 28-99 85-99zM99-20c44 1 53-31 53-75 0-43-8-75-51-75s-53 32-53 75 10 74 51 75" id="l"/><path fill="#3a414a" d="M143 4C61 4 22-44 18-125c-5-107 100-154 193-111 17 8 29 25 37 43l-32 9c-13-25-37-40-76-40-61 0-88 39-88 99 0 61 29 100 91 101 35 0 62-11 79-27v-45h-74v-28h105v86C228-13 192 4 143 4" id="m"/><g id="a"><use transform="matrix(0.06172839506172839,0,0,0.06172839506172839,0,0)" xlink:href="#k"/><use transform="matrix(0.06172839506172839,0,0,0.06172839506172839,15.987654320987653,0)" xlink:href="#l"/><use transform="matrix(0.06172839506172839,0,0,0.06172839506172839,28.333333333333332,0)" xlink:href="#m"/></g><path fill="#3a414a" d="M160-131c35 5 61 23 61 61C221 17 115-2 30 0v-248c76 3 177-17 177 60 0 33-19 50-47 57zm-97-11c50-1 110 9 110-42 0-47-63-36-110-37v79zm0 115c55-2 124 14 124-45 0-56-70-42-124-44v89" id="n"/><path fill="#3a414a" d="M84 4C-5 8 30-112 23-190h32v120c0 31 7 50 39 49 72-2 45-101 50-169h31l1 190h-30c-1-10 1-25-2-33-11 22-28 36-60 37" id="o"/><path fill="#3a414a" d="M101-234c-31-9-42 10-38 44h38v23H63V0H32v-167H5v-23h27c-7-52 17-82 69-68v24" id="p"/><path fill="#3a414a" d="M100-194c63 0 86 42 84 106H49c0 40 14 67 53 68 26 1 43-12 49-29l28 8c-11 28-37 45-77 45C44 4 14-33 15-96c1-61 26-98 85-98zm52 81c6-60-76-77-97-28-3 7-6 17-6 28h103" id="q"/><path fill="#3a414a" d="M114-163C36-179 61-72 57 0H25l-1-190h30c1 12-1 29 2 39 6-27 23-49 58-41v29" id="r"/><g id="b"><use transform="matrix(0.06172839506172839,0,0,0.06172839506172839,0,0)" xlink:href="#n"/><use transform="matrix(0.06172839506172839,0,0,0.06172839506172839,14.814814814814813,0)" xlink:href="#o"/><use transform="matrix(0.06172839506172839,0,0,0.06172839506172839,27.160493827160494,0)" xlink:href="#p"/><use transform="matrix(0.06172839506172839,0,0,0.06172839506172839,32.901234567901234,0)" xlink:href="#p"/><use transform="matrix(0.06172839506172839,0,0,0.06172839506172839,39.074074074074076,0)" xlink:href="#q"/><use transform="matrix(0.06172839506172839,0,0,0.06172839506172839,51.41975308641975,0)" xlink:href="#r"/></g><path fill="#3a414a" d="M30-248c87 1 191-15 191 75 0 78-77 80-158 76V0H30v-248zm33 125c57 0 124 11 124-50 0-59-68-47-124-48v98" id="s"/><path fill="#3a414a" d="M24-231v-30h32v30H24zM24 0v-190h32V0H24" id="t"/><path fill="#3a414a" d="M141 0L90-78 38 0H4l68-98-65-92h35l48 74 47-74h35l-64 92 68 98h-35" id="u"/><path fill="#3a414a" d="M24 0v-261h32V0H24" id="v"/><g id="c"><use transform="matrix(0.06172839506172839,0,0,0.06172839506172839,0,0)" xlink:href="#s"/><use transform="matrix(0.06172839506172839,0,0,0.06172839506172839,14.814814814814813,0)" xlink:href="#t"/><use transform="matrix(0.06172839506172839,0,0,0.06172839506172839,19.691358024691354,0)" xlink:href="#u"/><use transform="matrix(0.06172839506172839,0,0,0.06172839506172839,30.802469135802465,0)" xlink:href="#q"/><use transform="matrix(0.06172839506172839,0,0,0.06172839506172839,43.148148148148145,0)" xlink:href="#v"/></g><path fill="#3a414a" d="M141-36C126-15 110 5 73 4 37 3 15-17 15-53c-1-64 63-63 125-63 3-35-9-54-41-54-24 1-41 7-42 31l-33-3c5-37 33-52 76-52 45 0 72 20 72 64v82c-1 20 7 32 28 27v20c-31 9-61-2-59-35zM48-53c0 20 12 33 32 33 41-3 63-29 60-74-43 2-92-5-92 41" id="w"/><path fill="#3a414a" d="M59-47c-2 24 18 29 38 22v24C64 9 27 4 27-40v-127H5v-23h24l9-43h21v43h35v23H59v120" id="x"/><g id="d"><use transform="matrix(0.06172839506172839,0,0,0.06172839506172839,0,0)" xlink:href="#k"/><use transform="matrix(0.06172839506172839,0,0,0.06172839506172839,15.987654320987653,0)" xlink:href="#w"/><use transform="matrix(0.06172839506172839,0,0,0.06172839506172839,28.333333333333332,0)" xlink:href="#x"/><use transform="matrix(0.06172839506172839,0,0,0.06172839506172839,34.50617283950617,0)" xlink:href="#w"/></g><g id="f"><use transform="matrix(0.06172839506172839,0,0,0.06172839506172839,0,0)" xlink:href="#k"/><use transform="matrix(0.06172839506172839,0,0,0.06172839506172839,15.987654320987653,0)" xlink:href="#l"/><use transform="matrix(0.06172839506172839,0,0,0.06172839506172839,28.333333333333332,0)" xlink:href="#m"/></g><g id="g"><use transform="matrix(0.06172839506172839,0,0,0.06172839506172839,0,0)" xlink:href="#n"/><use transform="matrix(0.06172839506172839,0,0,0.06172839506172839,14.814814814814813,0)" xlink:href="#o"/><use transform="matrix(0.06172839506172839,0,0,0.06172839506172839,27.160493827160494,0)" xlink:href="#p"/><use transform="matrix(0.06172839506172839,0,0,0.06172839506172839,32.901234567901234,0)" xlink:href="#p"/><use transform="matrix(0.06172839506172839,0,0,0.06172839506172839,39.074074074074076,0)" xlink:href="#q"/><use transform="matrix(0.06172839506172839,0,0,0.06172839506172839,51.41975308641975,0)" xlink:href="#r"/></g><path fill="#3a414a" d="M212-179c-10-28-35-45-73-45-59 0-87 40-87 99 0 60 29 101 89 101 43 0 62-24 78-52l27 14C228-24 195 4 139 4 59 4 22-46 18-125c-6-104 99-153 187-111 19 9 31 26 39 46" id="y"/><path fill="#3a414a" d="M210-169c-67 3-38 105-44 169h-31v-121c0-29-5-50-35-48C34-165 62-65 56 0H25l-1-190h30c1 10-1 24 2 32 10-44 99-50 107 0 11-21 27-35 58-36 85-2 47 119 55 194h-31v-121c0-29-5-49-35-48" id="z"/><path fill="#3a414a" d="M115-194c55 1 70 41 70 98S169 2 115 4C84 4 66-9 55-30l1 105H24l-1-265h31l2 30c10-21 28-34 59-34zm-8 174c40 0 45-34 45-75s-6-73-45-74c-42 0-51 32-51 76 0 43 10 73 51 73" id="A"/><g id="h"><use transform="matrix(0.06172839506172839,0,0,0.06172839506172839,0,0)" xlink:href="#y"/><use transform="matrix(0.06172839506172839,0,0,0.06172839506172839,15.987654320987653,0)" xlink:href="#l"/><use transform="matrix(0.06172839506172839,0,0,0.06172839506172839,28.333333333333332,0)" xlink:href="#z"/><use transform="matrix(0.06172839506172839,0,0,0.06172839506172839,46.79012345679012,0)" xlink:href="#A"/><use transform="matrix(0.06172839506172839,0,0,0.06172839506172839,59.1358024691358,0)" xlink:href="#w"/><use transform="matrix(0.06172839506172839,0,0,0.06172839506172839,71.48148148148148,0)" xlink:href="#r"/><use transform="matrix(0.06172839506172839,0,0,0.06172839506172839,78.82716049382717,0)" xlink:href="#w"/><use transform="matrix(0.06172839506172839,0,0,0.06172839506172839,91.17283950617285,0)" xlink:href="#x"/><use transform="matrix(0.06172839506172839,0,0,0.06172839506172839,97.34567901234568,0)" xlink:href="#l"/><use transform="matrix(0.06172839506172839,0,0,0.06172839506172839,109.69135802469137,0)" xlink:href="#r"/></g><path fill="#3a414a" d="M126-127c33 6 58 20 58 59 0 88-139 92-164 29-3-8-5-16-6-25l32-3c6 27 21 44 54 44 32 0 52-15 52-46 0-38-36-46-79-43v-28c39 1 72-4 72-42 0-27-17-43-46-43-28 0-47 15-49 41l-32-3c6-42 35-63 81-64 48-1 79 21 79 65 0 36-21 52-52 59" id="B"/><g id="i"><use transform="matrix(0.06172839506172839,0,0,0.06172839506172839,0,0)" xlink:href="#B"/><use transform="matrix(0.06172839506172839,0,0,0.06172839506172839,12.345679012345679,0)" xlink:href="#u"/><use transform="matrix(0.06172839506172839,0,0,0.06172839506172839,23.45679012345679,0)" xlink:href="#B"/></g><path fill="#3a414a" d="M190 0L58-211 59 0H30v-248h39L202-35l-2-213h31V0h-41" id="C"/><path fill="#3a414a" d="M177-190C167-65 218 103 67 71c-23-6-38-20-44-43l32-5c15 47 100 32 89-28v-30C133-14 115 1 83 1 29 1 15-40 15-95c0-56 16-97 71-98 29-1 48 16 59 35 1-10 0-23 2-32h30zM94-22c36 0 50-32 50-73 0-42-14-75-50-75-39 0-46 34-46 75s6 73 46 73" id="D"/><path fill="#3a414a" d="M106-169C34-169 62-67 57 0H25v-261h32l-1 103c12-21 28-36 61-36 89 0 53 116 60 194h-32v-121c2-32-8-49-39-48" id="E"/><path fill="#3a414a" d="M115-194c53 0 69 39 70 98 0 66-23 100-70 100C84 3 66-7 56-30L54 0H23l1-261h32v101c10-23 28-34 59-34zm-8 174c40 0 45-34 45-75 0-40-5-75-45-74-42 0-51 32-51 76 0 43 10 73 51 73" id="F"/><path fill="#3a414a" d="M85-194c31 0 48 13 60 33l-1-100h32l1 261h-30c-2-10 0-23-3-31C134-8 116 4 85 4 32 4 16-35 15-94c0-66 23-100 70-100zm9 24c-40 0-46 34-46 75 0 40 6 74 45 74 42 0 51-32 51-76 0-42-9-74-50-73" id="G"/><g id="j"><use transform="matrix(0.06172839506172839,0,0,0.06172839506172839,0,0)" xlink:href="#C"/><use transform="matrix(0.06172839506172839,0,0,0.06172839506172839,15.987654320987653,0)" xlink:href="#q"/><use transform="matrix(0.06172839506172839,0,0,0.06172839506172839,28.333333333333332,0)" xlink:href="#t"/><use transform="matrix(0.06172839506172839,0,0,0.06172839506172839,33.20987654320987,0)" xlink:href="#D"/><use transform="matrix(0.06172839506172839,0,0,0.06172839506172839,45.55555555555555,0)" xlink:href="#E"/><use transform="matrix(0.06172839506172839,0,0,0.06172839506172839,57.90123456790123,0)" xlink:href="#F"/><use transform="matrix(0.06172839506172839,0,0,0.06172839506172839,70.24691358024691,0)" xlink:href="#l"/><use transform="matrix(0.06172839506172839,0,0,0.06172839506172839,82.5925925925926,0)" xlink:href="#o"/><use transform="matrix(0.06172839506172839,0,0,0.06172839506172839,94.93827160493828,0)" xlink:href="#r"/><use transform="matrix(0.06172839506172839,0,0,0.06172839506172839,102.28395061728396,0)" xlink:href="#E"/><use transform="matrix(0.06172839506172839,0,0,0.06172839506172839,114.62962962962965,0)" xlink:href="#l"/><use transform="matrix(0.06172839506172839,0,0,0.06172839506172839,126.97530864197533,0)" xlink:href="#l"/><use transform="matrix(0.06172839506172839,0,0,0.06172839506172839,139.32098765432102,0)" xlink:href="#G"/></g></defs></g></svg>